<svg
        xmlns="http://www.w3.org/2000/svg"
        width="32"
        height="32"
        viewBox="38 32 700 700"
>
    <g>
        <polygon
                fill="#52318A"
                points="448.97,569.47 347.87,480.75 306.88,516.72 407.98,605.44 439.27,632.9 439.27,632.9 449.01,641.44
			490,605.47 448.97,569.47 		"
        />
        <path
                fill="#52318A"
                d="M286.87,534.28l-38.25-33.56l-40.99-35.97l-38.25-33.56l-28.82-25.29V161.31l3.05,2.68l0,0l57.95,50.85l0,0
			l107.17,94.04l40.99-35.97l-87.15-76.48L143.62,92.05l-3.05-2.68c-21.4-18.78-57.95-5.49-57.95,21.05v316.56l84.03,73.73
			l40.99,35.97l162.8,142.86c9.7,8.51,25.38,8.51,35.08,0.03L429,659l-41.03-36L286.87,534.28z"
        />
        <polygon
                fill="#52318A"
                points="509.97,515.94 509.97,515.94 408.87,427.22 367.88,463.19 468.98,551.91 510.01,587.91 551,551.94
			541.26,543.4 		"
        />
        <path
                fill="#52318A"
                d="M635.37,89.38l-71.86,63.05l-38.25,33.56l-137.3,120.48l-30.87,27.09l-10.12,8.88l-17.35,15.25l-13.52,11.83
			l-8.13,7.15l-19.34,16.95v0.03l40.99,35.97v-0.03l40.99-35.93l17.35-15.26l40.99-35.97l206.41-181.13V405.9l-67.03,58.85
			L467.2,376l-40.99,35.97l101.14,88.75l40.99,35.97l40.99-35.97l83.99-73.73V110.43C693.32,83.88,656.77,70.6,635.37,89.38z"
        />
    </g>
</svg>